<svg width="13" height="14" viewBox="0 0 13 14" fill="none" xmlns="http://www.w3.org/2000/svg">
<path d="M6.375 0.585938C2.85418 0.585938 0 3.53925 0 7.18237C0 10.2761 2.05821 12.8718 4.83498 13.5847V9.19805H3.52037V7.18237H4.83498V6.31399C4.83498 4.06885 5.81673 3.02803 7.94735 3.02803C8.35125 3.02803 9.04795 3.11001 9.333 3.192V5.01921C9.18273 5.00272 8.92136 4.99471 8.59669 4.99471C7.55119 4.99471 7.14728 5.40463 7.14728 6.46948V7.18237H9.22963L8.87172 9.19805H7.14728V13.7303C10.3038 13.3359 12.75 10.5546 12.75 7.18237C12.75 3.53925 9.89582 0.585938 6.375 0.585938Z" fill="white"/>
</svg>
