<svg width="13" height="15" viewBox="0 0 13 15" fill="none" xmlns="http://www.w3.org/2000/svg">
<path d="M3.73473 0.941223C3.05624 0.974083 2.59313 1.08581 2.18831 1.24963C1.76938 1.41816 1.41419 1.64395 1.06038 2.00963C0.707012 2.37531 0.489348 2.74193 0.327238 3.17427C0.170137 3.59252 0.064037 4.0704 0.0339829 4.7703C0.00392881 5.46974 -0.00244628 5.69507 0.000741278 7.47934C0.00392883 9.26362 0.01167 9.48753 0.0444563 10.1889C0.0767872 10.8878 0.184709 11.3652 0.343631 11.783C0.507107 12.2149 0.726138 12.581 1.08087 12.9458C1.4356 13.31 1.79078 13.534 2.21154 13.7015C2.61681 13.863 3.08083 13.9733 3.75932 14.0039C4.43782 14.0344 4.65639 14.0414 6.38723 14.0381C8.11808 14.0348 8.33574 14.0269 9.01605 13.9935C9.69637 13.9602 10.1567 13.8485 10.562 13.6851C10.981 13.5161 11.3366 13.2908 11.69 12.9246C12.0433 12.5585 12.261 12.1919 12.4226 11.7591C12.5797 11.3413 12.6863 10.8629 12.7159 10.164C12.7455 9.46266 12.7528 9.23874 12.7491 7.454C12.7455 5.66925 12.7382 5.4458 12.7059 4.74496C12.6735 4.04411 12.5656 3.56811 12.4067 3.15033C12.2428 2.71846 12.0242 2.35231 11.6695 1.98757C11.3147 1.62283 10.9586 1.39891 10.5388 1.23227C10.1331 1.07031 9.6695 0.96 8.99101 0.929957C8.31252 0.899914 8.09394 0.891934 6.36264 0.89522C4.63135 0.898506 4.41459 0.906486 3.73473 0.940284M3.80941 12.8209C3.18784 12.7932 2.85041 12.6867 2.62546 12.5975C2.32766 12.4792 2.11546 12.336 1.89142 12.1074C1.66738 11.8788 1.5294 11.6591 1.41328 11.3526C1.32585 11.1207 1.22066 10.7733 1.19152 10.1325C1.1601 9.44012 1.15327 9.23217 1.14963 7.47747C1.14598 5.72276 1.15236 5.51528 1.18196 4.82241C1.20837 4.18212 1.31219 3.83381 1.39871 3.60191C1.51346 3.29444 1.65189 3.07616 1.87411 2.8452C2.09633 2.61425 2.30899 2.47201 2.60634 2.35231C2.83083 2.26171 3.16826 2.15421 3.78938 2.1237C4.4615 2.09084 4.66322 2.08427 6.36492 2.08051C8.06662 2.07676 8.2688 2.08333 8.94137 2.11384C9.56249 2.14154 9.90037 2.24763 10.1249 2.33729C10.4227 2.45558 10.6349 2.59782 10.8589 2.82736C11.083 3.05691 11.2209 3.27519 11.3375 3.58266C11.4254 3.81362 11.5297 4.16099 11.5588 4.80176C11.5907 5.49462 11.598 5.70258 11.6012 7.45681C11.6043 9.21104 11.5984 9.41947 11.5688 10.1119C11.5415 10.7526 11.4386 11.1005 11.3521 11.3328C11.2373 11.6398 11.0989 11.8586 10.8762 12.0895C10.6535 12.3205 10.4413 12.4627 10.144 12.5824C9.9195 12.6726 9.58207 12.7805 8.96141 12.811C8.28929 12.8434 8.08757 12.8505 6.38541 12.8542C4.68326 12.858 4.48153 12.8509 3.80941 12.8209ZM9.00649 3.95445C9.0074 4.39007 9.35029 4.74261 9.77287 4.74167C10.1954 4.74073 10.5374 4.38726 10.5365 3.95163C10.5356 3.51601 10.1927 3.16347 9.77014 3.16441C9.34756 3.16535 9.00604 3.51882 9.00649 3.95445ZM3.10178 7.47324C3.10542 9.33685 4.57352 10.8446 6.38131 10.8409C8.18911 10.8371 9.6522 9.32371 9.64901 7.4601C9.64537 5.59649 8.17682 4.08823 6.36902 4.09199C4.56122 4.09574 3.09813 5.60963 3.10178 7.47324ZM4.25066 7.47089C4.24838 6.26119 5.19782 5.27822 6.37175 5.27587C7.54523 5.27353 8.49876 6.25227 8.50104 7.46244C8.50331 8.67215 7.55388 9.65512 6.37995 9.65747C5.20647 9.65981 4.25294 8.68154 4.25066 7.47183" fill="white"/>
</svg>
