<svg width="13" height="14" viewBox="0 0 13 14" fill="none" xmlns="http://www.w3.org/2000/svg">
<path fill-rule="evenodd" clip-rule="evenodd" d="M6.375 0.741211C2.85418 0.741211 0 3.68366 0 7.31337C0 10.9431 2.85418 13.8855 6.375 13.8855C9.89582 13.8855 12.75 10.9431 12.75 7.31337C12.75 3.68366 9.89582 0.741211 6.375 0.741211ZM9.32981 5.21075C9.23373 6.25009 8.8189 8.77192 8.60762 9.93567C8.51837 10.4281 8.34214 10.5934 8.17184 10.6093C7.80163 10.6445 7.52068 10.3572 7.16186 10.115C6.60086 9.73569 6.28393 9.49956 5.73932 9.12964C5.11002 8.70198 5.51802 8.46679 5.87684 8.08279C5.97064 7.98233 7.60173 6.45289 7.63361 6.31394C7.63771 6.29657 7.64135 6.23178 7.60401 6.19751C7.56667 6.16325 7.51157 6.17498 7.47196 6.18437C7.41549 6.19751 6.51935 6.80826 4.78307 8.01659C4.52853 8.19686 4.29812 8.28465 4.09184 8.27995C3.86416 8.27479 3.42656 8.1471 3.10098 8.03819C2.70163 7.9044 2.38425 7.83351 2.41203 7.6063C2.4266 7.48801 2.58461 7.36689 2.88651 7.24343C4.74482 6.40876 5.9843 5.85858 6.60404 5.59241C8.37447 4.83332 8.7424 4.70141 8.98192 4.69718C9.03474 4.69624 9.15268 4.70986 9.22918 4.7737C9.29384 4.82769 9.3116 4.90045 9.31979 4.95162C9.32845 5.00279 9.33892 5.11921 9.33027 5.21028L9.32981 5.21075Z" fill="white"/>
</svg>
